<svg xmlns="http://www.w3.org/2000/svg" width="256" height="256" viewBox="0 0 256 256" fill="none">
      <rect width="256" height="256" fill="none"/>
      
      <circle cx="128" cy="128" r="92" stroke="#2E3A4A" stroke-width="14" fill="none" stroke-linecap="round"/>
      <circle cx="128" cy="128" r="70" stroke="#2E3A4A" stroke-width="4" opacity="0.35" fill="none"/>
    
      <circle cx="207.67" cy="174.00" r="12" fill="#FF9500" opacity="0.95"/>
<circle cx="48.33" cy="82.00" r="12" fill="#00D1D1" opacity="0.95"/>
<circle cx="174.00" cy="48.33" r="12" fill="#7A5AF8" opacity="0.95"/>
      <g stroke-linecap="round" stroke-linejoin="round">
        <rect x="88" y="96" width="80" height="64" rx="10" stroke="#E6F0FF" stroke-width="10" fill="none"/><line x1="96" y1="92" x2="96" y2="80" stroke="#E6F0FF" stroke-width="8" stroke-linecap="round"/>
<line x1="96" y1="164" x2="96" y2="176" stroke="#E6F0FF" stroke-width="8" stroke-linecap="round"/>
<line x1="112" y1="92" x2="112" y2="80" stroke="#E6F0FF" stroke-width="8" stroke-linecap="round"/>
<line x1="112" y1="164" x2="112" y2="176" stroke="#E6F0FF" stroke-width="8" stroke-linecap="round"/>
<line x1="128" y1="92" x2="128" y2="80" stroke="#E6F0FF" stroke-width="8" stroke-linecap="round"/>
<line x1="128" y1="164" x2="128" y2="176" stroke="#E6F0FF" stroke-width="8" stroke-linecap="round"/>
<line x1="144" y1="92" x2="144" y2="80" stroke="#E6F0FF" stroke-width="8" stroke-linecap="round"/>
<line x1="144" y1="164" x2="144" y2="176" stroke="#E6F0FF" stroke-width="8" stroke-linecap="round"/>
<line x1="84" y1="104" x2="72" y2="104" stroke="#E6F0FF" stroke-width="8" stroke-linecap="round"/>
<line x1="172" y1="104" x2="184" y2="104" stroke="#E6F0FF" stroke-width="8" stroke-linecap="round"/>
<line x1="84" y1="120" x2="72" y2="120" stroke="#E6F0FF" stroke-width="8" stroke-linecap="round"/>
<line x1="172" y1="120" x2="184" y2="120" stroke="#E6F0FF" stroke-width="8" stroke-linecap="round"/>
<line x1="84" y1="136" x2="72" y2="136" stroke="#E6F0FF" stroke-width="8" stroke-linecap="round"/>
<line x1="172" y1="136" x2="184" y2="136" stroke="#E6F0FF" stroke-width="8" stroke-linecap="round"/>
      </g>
    </svg>